<?xml version="1.0" encoding="utf-8"?>
<!-- Generator: Adobe Illustrator 15.0.0, SVG Export Plug-In  -->
<!DOCTYPE svg PUBLIC "-//W3C//DTD SVG 1.1//EN" "http://www.w3.org/Graphics/SVG/1.1/DTD/svg11.dtd" [
	<!ENTITY ns_flows "http://ns.adobe.com/Flows/1.0/">
]>
<svg version="1.1"
	 xmlns="http://www.w3.org/2000/svg" xmlns:xlink="http://www.w3.org/1999/xlink" xmlns:a="http://ns.adobe.com/AdobeSVGViewerExtensions/3.0/"
	 x="0px" y="0px" width="120px" height="120px" viewBox="0 0 120 120" overflow="visible" enable-background="new 0 0 120 120"
	 xml:space="preserve">
<defs>
</defs>
<path fill="#306F08" d="M60,0C26.863,0,0,26.863,0,60c0,33.137,26.863,60,60,60c33.137,0,60-26.863,60-60C120,26.863,93.137,0,60,0z
	 M80,84H40c-2.209,0-4-1.791-4-4s1.791-4,4-4h40c2.209,0,4,1.791,4,4S82.209,84,80,84z M80,64H40c-2.209,0-4-1.791-4-4s1.791-4,4-4
	h40c2.209,0,4,1.791,4,4S82.209,64,80,64z M80,44H40c-2.209,0-4-1.791-4-4s1.791-4,4-4h40c2.209,0,4,1.791,4,4S82.209,44,80,44z"/>
</svg>
