<?xml version="1.0" encoding="utf-8"?>
<!-- Generator: Adobe Illustrator 15.0.0, SVG Export Plug-In  -->
<!DOCTYPE svg PUBLIC "-//W3C//DTD SVG 1.1//EN" "http://www.w3.org/Graphics/SVG/1.1/DTD/svg11.dtd" [
	<!ENTITY ns_flows "http://ns.adobe.com/Flows/1.0/">
]>
<svg version="1.1"
	 xmlns="http://www.w3.org/2000/svg" xmlns:xlink="http://www.w3.org/1999/xlink" xmlns:a="http://ns.adobe.com/AdobeSVGViewerExtensions/3.0/"
	 x="0px" y="0px" width="1120px" height="196px" viewBox="0 0 1120 196" overflow="visible" enable-background="new 0 0 1120 196"
	 xml:space="preserve">
<defs>
</defs>
<path fill="#306F08" d="M76.828,1.093c-35.417,0-55.85,16.121-65.658,33.608V4.372H0V195.64h11.17v-84.979
	c9.809,16.941,30.241,32.516,65.658,32.516c47.133,0,64.841-30.329,64.841-69.949C141.669,32.515,123.961,1.093,76.828,1.093z
	 M70.834,42.352c52.582,0,59.665,17.214,59.665,30.876c0,12.842-7.083,29.783-59.665,29.783c-51.763,0-59.119-16.94-59.119-29.783
	C11.715,59.566,19.071,42.352,70.834,42.352z"/>
<path fill="#306F08" d="M152.844,139.898h11.17V86.07c0-18.581,2.997-37.161,45.225-37.161c28.334,0,54.761,7.377,57.758,11.476
	V8.197c-7.355-4.372-23.975-7.104-35.145-7.104c-55.033,0-63.207,28.417-70.018,40.167V4.372h-8.99V139.898z"/>
<path fill="#306F08" d="M345.46,143.177c31.331,0,67.293-18.033,67.293-54.647h-11.171c0,9.29-19.615,13.116-53.942,13.389
	c-51.219-0.272-65.112-14.208-65.112-21.859h130.226v-10.93c0-47.543-27.244-68.037-67.293-68.037
	c-47.677,0-74.104,30.876-74.104,70.223C271.356,110.935,292.607,143.177,345.46,143.177z M282.527,66.397
	c0-10.383,16.346-22.679,62.115-22.679c41.684,0,57.758,13.115,57.758,22.679H282.527z"/>
<path fill="#306F08" d="M488.224,143.177c59.665,0,71.924-28.689,71.924-45.63c0-60.659-125.05-32.516-125.05-52.462
	c0-4.918,8.174-7.924,54.488-7.924c26.427,0,56.123,4.918,56.123,12.295h11.17c0-2.732,0.816-49.456-65.386-49.456
	c-47.404,0-67.565,22.132-67.565,43.718c0,59.566,129.409,29.783,129.409,51.916c0,5.738-8.718,9.017-59.664,9.017
	c-37.052,0-58.847-3.278-58.847-14.208h-11.17C423.656,113.121,437.277,143.177,488.224,143.177z"/>
<path fill="#306F08" d="M640.525,143.177c31.331,0,67.292-18.033,67.292-54.647h-11.17c0,9.29-19.616,13.116-53.943,13.389
	c-51.219-0.272-65.113-14.208-65.113-21.859h130.226v-10.93c0-47.543-27.244-68.037-67.292-68.037
	c-47.677,0-74.104,30.876-74.104,70.223C566.421,110.935,587.672,143.177,640.525,143.177z M577.591,66.397
	c0-10.383,16.347-22.679,62.116-22.679c41.684,0,57.757,13.115,57.757,22.679H577.591z"/>
<path fill="#306F08" d="M721.718,139.898h11.17V86.07c0-18.581,2.997-37.161,45.225-37.161c28.333,0,54.76,7.377,57.757,11.476
	V8.197c-7.356-4.372-23.975-7.104-35.145-7.104c-55.033,0-63.206,28.417-70.017,40.167V4.372h-8.99V139.898z"/>
<path fill="#306F08" d="M897.988,139.898h34.872L989.256,4.372h-41.957l-49.583,108.203L854.943,4.372h-12.805L897.988,139.898z"/>
<path fill="#306F08" d="M1053.007,143.177c31.331,0,67.292-18.033,67.292-54.647h-11.17c0,9.29-19.615,13.116-53.942,13.389
	c-51.22-0.272-65.113-14.208-65.113-21.859h130.226v-10.93c0-47.543-27.244-68.037-67.292-68.037
	c-47.677,0-74.104,30.876-74.104,70.223C978.904,110.935,1000.155,143.177,1053.007,143.177z M990.074,66.397
	c0-10.383,16.347-22.679,62.116-22.679c41.684,0,57.758,13.115,57.758,22.679H990.074z"/>
</svg>
