<?xml version="1.0" encoding="utf-8"?>
<!-- Generator: Adobe Illustrator 15.0.0, SVG Export Plug-In  -->
<!DOCTYPE svg PUBLIC "-//W3C//DTD SVG 1.1//EN" "http://www.w3.org/Graphics/SVG/1.1/DTD/svg11.dtd" [
	<!ENTITY ns_flows "http://ns.adobe.com/Flows/1.0/">
]>
<svg version="1.1"
	 xmlns="http://www.w3.org/2000/svg" xmlns:xlink="http://www.w3.org/1999/xlink" xmlns:a="http://ns.adobe.com/AdobeSVGViewerExtensions/3.0/"
	 x="0px" y="0px" width="196px" height="1120px" viewBox="-0.546 0 196 1120"
	 overflow="visible" enable-background="new -0.546 0 196 1120" xml:space="preserve">
<defs>
</defs>
<path fill="#306F08" d="M1.093,1043.472c0,35.417,16.121,55.85,33.608,65.658H4.372v11.17H195.64v-11.17h-84.979
	c16.941-9.809,32.516-30.241,32.516-65.658c0-47.133-30.329-64.841-69.949-64.841C32.515,978.631,1.093,996.339,1.093,1043.472z
	 M42.352,1049.466c0-52.582,17.214-59.665,30.876-59.665c12.842,0,29.783,7.083,29.783,59.665c0,51.763-16.94,59.119-29.783,59.119
	C59.566,1108.585,42.352,1101.229,42.352,1049.466z"/>
<path fill="#306F08" d="M139.898,967.456v-11.17H86.07c-18.581,0-37.161-2.997-37.161-45.225c0-28.334,7.377-54.761,11.476-57.758
	H8.197c-4.372,7.355-7.104,23.975-7.104,35.145c0,55.033,28.417,63.207,40.167,70.018H4.372v8.99H139.898z"/>
<path fill="#306F08" d="M143.177,774.84c0-31.331-18.033-67.293-54.647-67.293v11.171c9.29,0,13.116,19.615,13.389,53.942
	c-0.272,51.219-14.208,65.112-21.859,65.112V707.547h-10.93c-47.543,0-68.037,27.244-68.037,67.293
	c0,47.677,30.876,74.104,70.223,74.104C110.935,848.943,143.177,827.692,143.177,774.84z M66.397,837.772
	c-10.383,0-22.679-16.346-22.679-62.115c0-41.684,13.115-57.758,22.679-57.758V837.772z"/>
<path fill="#306F08" d="M143.177,632.076c0-59.665-28.689-71.924-45.63-71.924c-60.659,0-32.516,125.05-52.462,125.05
	c-4.918,0-7.924-8.174-7.924-54.488c0-26.427,4.918-56.123,12.295-56.123v-11.17C46.724,563.421,0,562.604,0,628.807
	c0,47.404,22.132,67.565,43.718,67.565c59.566,0,29.783-129.409,51.916-129.409c5.738,0,9.017,8.718,9.017,59.664
	c0,37.052-3.278,58.847-14.208,58.847v11.17C113.121,696.644,143.177,683.022,143.177,632.076z"/>
<path fill="#306F08" d="M143.177,479.775c0-31.331-18.033-67.292-54.647-67.292v11.17c9.29,0,13.116,19.616,13.389,53.943
	c-0.272,51.219-14.208,65.113-21.859,65.113V412.482h-10.93c-47.543,0-68.037,27.244-68.037,67.292
	c0,47.677,30.876,74.104,70.223,74.104C110.935,553.878,143.177,532.628,143.177,479.775z M66.397,542.708
	c-10.383,0-22.679-16.347-22.679-62.116c0-41.684,13.115-57.757,22.679-57.757V542.708z"/>
<path fill="#306F08" d="M139.898,398.582v-11.17H86.07c-18.581,0-37.161-2.997-37.161-45.225c0-28.333,7.377-54.76,11.476-57.757
	H8.197c-4.372,7.356-7.104,23.975-7.104,35.145c0,55.033,28.417,63.206,40.167,70.017H4.372v8.99H139.898z"/>
<path fill="#306F08" d="M139.898,222.312v-34.872L4.372,131.044V173l108.203,49.584L4.372,265.357v12.805L139.898,222.312z"/>
<path fill="#306F08" d="M143.177,67.292C143.177,35.962,125.144,0,88.529,0v11.17c9.29,0,13.116,19.616,13.389,53.943
	c-0.272,51.219-14.208,65.113-21.859,65.113V0h-10.93C21.586,0,1.093,27.244,1.093,67.292c0,47.677,30.876,74.104,70.223,74.104
	C110.935,141.396,143.177,120.146,143.177,67.292z M66.397,130.226c-10.383,0-22.679-16.346-22.679-62.116
	c0-41.683,13.115-57.757,22.679-57.757V130.226z"/>
</svg>
